<svg xmlns="http://www.w3.org/2000/svg" version="1.1" id="Layer_1" x="0" y="0" viewBox="0 0 3600 3600" style="enable-background:new 0 0 3600 3600" xml:space="preserve">
  <style>
    .st4{fill:#567ebf}.st5{fill:#ea4536}
  </style>
  <path d="M1939 49c4 2 9 1 13 2a988 988 0 0 1 627 261l4 3c0 5-3 6-5 8l-279 279-4 4c-2 2-3 1-5 0l-6-6a542 542 0 0 0-279-136 597 597 0 0 0-555 199c-53 61-94 130-120 207l-3 8-3-2-162-126-174-135c0-3 2-6 3-8 45-87 100-166 168-237 189-197 421-304 694-319 3-1 6 0 8-2h78z" style="fill:#ea4435"/>
  <path d="M1326 1269c9 21 16 43 26 63a612 612 0 0 0 888 266l8-5 6 5 218 169 104 82a935 935 0 0 1-440 224 1127 1127 0 0 1-203 24h-62c-14-2-28-2-42-2a965 965 0 0 1-287-63 1021 1021 0 0 1-554-500l61-48 277-215z" style="fill:#35a851"/>
  <path d="m2576 1849-104-82-218-169-6-5c15-11 31-22 45-35a472 472 0 0 0 158-266c0-3-1-4-4-5h-532c-16 0-14 2-14-14V915c0-13-1-12 12-12h939c12 0 12 0 14 12a1304 1304 0 0 1 14 191c0 62-5 123-15 184-13 82-35 162-67 238a915 915 0 0 1-215 315c-2 2-4 5-7 6z" style="fill:#557dbf"/>
  <path d="M988 1532a1012 1012 0 0 1-3-911l3-6 174 135 162 126 2 2-17 65a605 605 0 0 0 15 319l2 7-277 215-61 48z" style="fill:#f9bc16"/>
  <path class="st4" d="M780 2736h184c4 0 7 0 8 6 12 101 0 197-58 283a353 353 0 0 1-231 151c-80 16-159 13-236-16a408 408 0 0 1-272-318c-24-125 10-238 92-336 65-77 148-125 247-142 127-22 241 5 340 90l16 14c2 2 2 3 0 6l-74 73c-3 4-5 2-7-1-43-39-93-64-151-73-86-12-164 6-232 60a286 286 0 0 0-112 207 294 294 0 0 0 260 329c60 7 119 0 173-28 74-38 119-98 131-180 1-12 1-12-10-12H598c-11 0-9 1-9-10l-1-95c0-7 3-8 10-8h182zM2689 2926v200c0 41-1 83-13 123a226 226 0 0 1-205 173 255 255 0 0 1-270-148c-2-6-1-8 4-10l88-37c6-2 8-1 11 4 22 45 56 77 106 85 45 8 88 0 123-31 23-21 35-48 41-78 5-26 4-52 4-78 0-2 0-4-2-5-3 0-4 2-6 4-25 28-58 45-95 52-57 12-112 1-163-28a260 260 0 0 1-132-195 268 268 0 0 1 192-297c56-15 110-11 162 18 13 8 26 18 36 29 2 2 3 5 6 3 3-1 2-4 2-6v-29c-1-6 1-8 7-8h97c6 0 7 2 7 8v251zm-394-12c0 46 12 83 39 115 60 70 173 70 225-14 37-61 37-126 3-188-43-76-138-94-206-40-43 34-61 79-61 127z"/>
  <path class="st5" d="M1022 2911c4-152 124-264 277-259 149 4 265 123 258 280a264 264 0 0 1-278 253 264 264 0 0 1-257-274zm418 7c0-21-3-42-11-62a148 148 0 0 0-249-50c-57 62-54 171 7 231 53 53 137 57 195 9 40-33 57-77 58-128z"/>
  <path d="M2135 2918c0 150-117 267-268 267a264 264 0 0 1-267-267 263 263 0 0 1 268-267c151 1 267 116 267 267zm-273 162c45-1 79-15 108-42 52-52 63-138 27-205a147 147 0 0 0-239-27c-48 53-55 140-17 202 29 46 71 70 121 72z" style="fill:#f9bc17"/>
  <path class="st5" d="M2922 2911c1-66 22-130 72-183 42-45 95-70 157-75 100-9 173 35 226 117 15 24 25 51 36 77 2 5-2 6-5 7l-117 48-228 94c-5 2-5 4-3 8 32 58 83 81 145 75 46-5 81-29 108-66 4-6 7-6 12-2l79 52c4 3 5 5 1 9a260 260 0 0 1-239 111c-99-7-173-56-218-146-18-37-26-78-26-126zm116-2h2l233-96c3-2 3-3 2-6-4-8-8-14-14-20-28-28-63-37-100-31-74 12-127 78-123 153z"/>
  <path d="M2873 2778v382c0 7-2 9-9 9h-99c-6 0-7-2-7-7v-768c0-6 1-7 7-7h100c6 0 8 1 8 8v383z" style="fill:#36a852"/>
</svg>
